# xmcd
#
# Track frame offsets: 
#        150
#        16070
#        32107
#        55255
#        69873
#        93339
#        109103
#        127377
#        141698
#        158453
#
# Disc length: 2295 seconds
#
# Revision: 0
# Processed by: cddbd v1.5.2PL0 Copyright (c) Steve Scherf et al.
# Submitted via: ExactAudioCopy v0.99pb5
#
DISCID=8508f50a
DTITLE=Eric Uglum - Shenendoah Wind
DYEAR=2003
DGENRE=Bluegrass
TTITLE0=The Wandering Boy
TTITLE1=Shenendoah Wind
TTITLE2=Jamie Raeburn
TTITLE3=Lovers' Quarrel
TTITLE4=Travels
TTITLE5=Farewell for a Little While
TTITLE6=If a Broken Heart Could Kill
TTITLE7=Is Your Heart Right with God
TTITLE8=Mansion on the Hill
TTITLE9=Battle Cry of Freedom
EXTD=
EXTT0=
EXTT1=
EXTT2=
EXTT3=
EXTT4=
EXTT5=
EXTT6=
EXTT7=
EXTT8=
EXTT9=
PLAYORDER=
